# Blender v2.80 (sub 75) OBJ File: 'HERO.blend'
# www.blender.org
mtllib Model_Tower.mtl
o Cube.010_Cube.012
v -2.514552 1.194730 2.514552
v -1.992083 8.651012 1.992083
v -2.514552 1.194730 -2.514552
v -1.992083 8.651012 -1.992083
v 2.514552 1.194730 2.514552
v 1.992083 8.651012 1.992083
v 2.514552 1.194730 -2.514552
v 1.992083 8.651012 -1.992083
v -2.863434 8.651012 2.863434
v -2.863434 8.651012 -2.863434
v 2.863434 8.651012 -2.863434
v 2.863434 8.651012 2.863434
v -2.839962 10.186371 2.839962
v -2.839962 10.186371 -2.839962
v 2.839962 10.186371 -2.839962
v 2.839962 10.186371 2.839962
v -2.839962 10.186371 2.839962
v -2.839962 10.186371 -2.839962
v 2.839962 10.186371 -2.839962
v 2.839962 10.186371 2.839962
v -2.839962 10.186371 1.703977
v -2.839962 10.186371 0.567992
v -2.839962 10.186371 -0.567992
v -2.839962 10.186371 -1.703977
v -1.703977 10.186371 -2.839962
v -0.567992 10.186371 -2.839962
v 0.567992 10.186371 -2.839962
v 1.703977 10.186371 -2.839962
v 2.839962 10.186371 -1.703977
v 2.839962 10.186371 -0.567992
v 2.839962 10.186371 0.567992
v 2.839962 10.186371 1.703977
v 1.703977 10.186371 2.839962
v 0.567992 10.186371 2.839962
v -0.567992 10.186371 2.839962
v -1.703977 10.186371 2.839962
v 1.703977 10.186371 -1.703977
v 1.703977 10.186371 -0.567992
v 1.703977 10.186371 0.567992
v 1.703977 10.186371 1.703977
v 0.567992 10.186371 -1.703977
v 0.567992 10.186371 1.703977
v -0.567992 10.186371 -1.703977
v -0.567992 10.186371 1.703977
v -1.703977 10.186371 -1.703977
v -1.703977 10.186371 -0.567992
v -1.703977 10.186371 0.567992
v -1.703977 10.186371 1.703977
v -2.839962 10.962957 -1.703977
v -2.839962 10.962957 -2.839962
v 1.703977 10.962957 -2.839962
v 2.839962 10.962957 -2.839962
v 2.839962 10.962957 1.703977
v 2.839962 10.962957 2.839962
v -1.703977 10.962957 2.839962
v -2.839962 10.962957 2.839962
v -2.839962 10.962957 1.703977
v -2.839962 10.962957 0.567992
v -2.839962 10.962957 -0.567992
v -1.703977 10.962957 -2.839962
v -0.567992 10.962957 -2.839962
v 0.567992 10.962957 -2.839962
v 2.839962 10.962957 -1.703977
v 2.839962 10.962957 -0.567992
v 2.839962 10.962957 0.567992
v 1.703977 10.962957 2.839962
v 0.567992 10.962957 2.839962
v -0.567992 10.962957 2.839962
v 1.703977 10.962957 1.703977
v 1.703977 10.962957 -1.703977
v 1.703977 10.962957 -0.567992
v 1.703977 10.962957 0.567992
v 0.567992 10.962957 1.703977
v 0.567992 10.962957 -1.703977
v -0.567992 10.962957 1.703977
v -0.567992 10.962957 -1.703977
v -1.703977 10.962957 1.703977
v -1.703977 10.962957 -1.703977
v -1.703977 10.962957 -0.567992
v -1.703977 10.962957 0.567992
v 1.703977 9.239952 -1.703977
v 1.703977 9.239952 -0.567992
v 1.703977 9.239952 0.567992
v 1.703977 9.239952 1.703977
v 0.567992 9.239952 -1.703977
v 0.567992 9.239952 -0.567992
v 0.567992 9.239952 0.567992
v 0.567992 9.239952 1.703977
v -0.567992 9.239952 -1.703977
v -0.567992 9.239952 -0.567992
v -0.567992 9.239952 0.567992
v -0.567992 9.239952 1.703977
v -1.703977 9.239952 -1.703977
v -1.703977 9.239952 -0.567992
v -1.703977 9.239952 0.567992
v -1.703977 9.239952 1.703977
v -3.353571 1.194730 -3.353571
v -3.353571 1.194730 3.353571
v 3.353571 1.194730 -3.353571
v 3.353571 1.194730 3.353571
v -3.353571 0.000000 -3.353571
v -3.353571 0.000000 3.353571
v 3.353571 0.000000 -3.353571
v 3.353571 0.000000 3.353571
vt 0.108276 0.621495
vt 0.266715 0.477707
vt 0.348861 0.556418
vt 0.211966 0.720850
vt 0.637413 0.724535
vt 0.484526 0.555647
vt 0.568442 0.468288
vt 0.743338 0.614264
vt 0.742558 0.173490
vt 0.567454 0.327253
vt 0.479399 0.240073
vt 0.631409 0.063444
vt 0.163948 0.089069
vt 0.333500 0.247983
vt 0.255493 0.343812
vt 0.065481 0.210032
vt 0.631226 0.026542
vt 0.779460 0.173306
vt 0.567644 0.365578
vt 0.441075 0.240264
vt 0.533525 0.399002
vt 0.407993 0.274714
vt 0.265964 0.442527
vt 0.384040 0.555666
vt 0.371519 0.244085
vt 0.259391 0.381831
vt 0.447067 0.556400
vt 0.567689 0.430829
vt 0.296784 0.411331
vt 0.407964 0.276202
vt 0.378749 0.313160
vt 0.358782 0.337679
vt 0.341337 0.359269
vt 0.323487 0.379857
vt 0.297721 0.411299
vt 0.413892 0.523543
vt 0.041952 0.919130
vt 0.006892 0.931420
vt 0.000137 0.909152
vt 0.023209 0.906683
vt 0.413905 0.522433
vt 0.441017 0.493139
vt 0.461077 0.472121
vt 0.479908 0.452258
vt 0.500207 0.432285
vt 0.532562 0.398918
vt 0.510130 0.377774
vt 0.494399 0.362509
vt 0.475569 0.344382
vt 0.453309 0.321426
vt 0.323719 0.435222
vt 0.343447 0.453955
vt 0.361923 0.471400
vt 0.380285 0.489985
vt 0.011469 0.870046
vt 0.044104 0.878231
vt 0.025062 0.891399
vt 0.006161 0.883044
vt 0.045707 0.960065
vt 0.089406 0.956666
vt 0.081191 0.992726
vt 0.054814 0.993115
vt 0.482583 0.376726
vt 0.463402 0.359865
vt 0.133788 0.956321
vt 0.178323 0.953026
vt 0.173784 0.990824
vt 0.144670 0.993183
vt 0.048161 0.833395
vt 0.009431 0.842968
vt 0.003478 0.819118
vt 0.029630 0.816813
vt 0.092200 0.828963
vt 0.080992 0.792825
vt 0.100795 0.786041
vt 0.105320 0.807404
vt 0.012729 0.958017
vt 0.052368 0.795468
vt 0.472344 0.788037
vt 0.516230 0.786041
vt 0.512701 0.818047
vt 0.480584 0.819775
vt 0.557393 0.798607
vt 0.577803 0.840253
vt 0.545070 0.847806
vt 0.540483 0.822248
vt 0.420029 0.891576
vt 0.420029 0.847841
vt 0.450859 0.851680
vt 0.452762 0.884023
vt 0.338063 0.391015
vt 0.323551 0.405988
vt 0.564367 0.922348
vt 0.525488 0.943792
vt 0.517247 0.912054
vt 0.541303 0.905663
vt 0.577803 0.883988
vt 0.546972 0.880149
vt 0.440439 0.933222
vt 0.457348 0.909581
vt 0.143293 0.793083
vt 0.169192 0.793679
vt 0.176856 0.826558
vt 0.134725 0.827256
vt 0.433464 0.809481
vt 0.456529 0.826166
vt 0.481601 0.945788
vt 0.485130 0.913782
vt 0.500802 0.394108
vt 0.494627 0.387912
vt 0.209217 0.829400
vt 0.214734 0.855145
vt 0.178527 0.869225
vt 0.103944 0.974878
vt 0.096523 0.998160
vt 0.182859 0.909702
vt 0.214142 0.916328
vt 0.216578 0.943269
vt 0.196627 0.969424
vt 0.222702 0.967017
vt 0.220952 0.996467
vt 0.191501 0.994717
vt 0.009938 0.972161
vt 0.031275 0.977178
vt 0.035700 0.999338
vt 0.007970 0.999744
vt 0.120094 0.978037
vt 0.124477 0.999863
vt 0.005359 0.789767
vt 0.034710 0.791648
vt 0.128251 0.787519
vt 0.121008 0.810246
vt 0.188099 0.788304
vt 0.215167 0.788848
vt 0.212335 0.815692
vt 0.191648 0.810139
vt 0.199822 0.880776
vt 0.222702 0.876755
vt 0.218723 0.903051
vt 0.199465 0.896016
vt 0.411040 0.317399
vt 0.394001 0.330380
vt 0.323739 0.406363
vt 0.337704 0.423167
vt 0.374115 0.350954
vt 0.355528 0.371553
vt 0.355727 0.441265
vt 0.374005 0.458653
vt 0.411615 0.490000
vt 0.428541 0.478068
vt 0.392466 0.475694
vt 0.410973 0.490020
vt 0.447545 0.459150
vt 0.466063 0.439354
vt 0.484285 0.418668
vt 0.500381 0.394771
vt 0.438950 0.339107
vt 0.411847 0.316861
vt 0.483878 0.882411
vt 0.515094 0.880669
vt 0.482738 0.851160
vt 0.513953 0.849418
vt 0.160194 0.052461
vt 0.028873 0.213785
vt 0.000137 0.190393
vt 0.131458 0.029069
vt 0.779407 0.613539
vt 0.638138 0.760604
vt 0.212689 0.754724
vt 0.074402 0.622218
vt 0.419755 0.786041
vt 0.419755 0.982820
vt 0.222976 0.982820
vt 0.222976 0.786041
vt 0.805603 0.638703
vt 0.664335 0.785768
vt 0.657368 0.000137
vt 0.805603 0.146902
vt 0.189086 0.779357
vt 0.050799 0.646851
vn -0.9976 0.0699 0.0000
vn 0.0000 0.0699 -0.9976
vn 0.9976 0.0699 0.0000
vn 0.0000 0.0699 0.9976
vn 0.0000 1.0000 0.0000
vn 0.0000 -1.0000 0.0000
vn 0.9999 0.0153 0.0000
vn 0.0000 0.0000 1.0000
vn -0.9999 0.0153 0.0000
vn 0.0000 0.0153 0.9999
vn 0.0000 0.0153 -0.9999
vn 0.0000 0.0000 -1.0000
vn 1.0000 0.0000 0.0000
vn -1.0000 0.0000 0.0000
usemtl None
s off
f 1/1/1 2/2/1 4/3/1 3/4/1
f 3/5/2 4/6/2 8/7/2 7/8/2
f 7/9/3 8/10/3 6/11/3 5/12/3
f 5/13/4 6/14/4 2/15/4 1/16/4
f 7/9/5 5/12/5 100/17/5 99/18/5
f 6/11/6 8/10/6 11/19/6 12/20/6
f 12/20/7 11/19/7 15/21/7 16/22/7
f 4/3/6 2/2/6 9/23/6 10/24/6
f 2/15/6 6/14/6 12/25/6 9/26/6
f 8/7/6 4/6/6 10/27/6 11/28/6
f 13/29/8 16/22/8 20/30/8 33/31/8 34/32/8 35/33/8 36/34/8 17/35/8
f 10/24/9 9/23/9 13/29/9 14/36/9
f 9/26/10 12/25/10 16/22/10 13/29/10
f 11/28/11 10/27/11 14/36/11 15/21/11
f 39/37/8 31/38/8 65/39/8 72/40/8
f 15/21/12 14/36/12 18/41/12 25/42/12 26/43/12 27/44/12 28/45/12 19/46/12
f 16/22/6 15/21/6 19/46/6 29/47/6 30/48/6 31/49/6 32/50/6 20/30/6
f 14/36/6 13/29/6 17/35/6 21/51/6 22/52/6 23/53/6 24/54/6 18/41/6
f 30/55/12 38/56/12 71/57/12 64/58/12
f 40/59/5 42/60/5 34/61/5 33/62/5
f 31/49/13 30/48/13 64/63/13 65/64/13
f 44/65/5 48/66/5 36/67/5 35/68/5
f 37/69/8 29/70/8 63/71/8 70/72/8
f 29/70/5 37/69/5 38/56/5 30/55/5
f 41/73/13 27/74/13 62/75/13 74/76/13
f 31/38/5 39/37/5 40/59/5 32/77/5
f 28/78/5 27/74/5 41/73/5 37/69/5
f 46/79/13 47/80/13 95/81/13 94/82/13
f 48/83/12 44/84/12 92/85/12 96/86/12
f 41/87/8 43/88/8 89/89/8 85/90/8
f 17/35/8 36/34/8 55/91/8 56/92/8
f 40/93/14 39/94/14 83/95/14 84/96/14
f 44/84/12 42/97/12 88/98/12 92/85/12
f 37/99/8 41/87/8 85/90/8 81/100/8
f 26/101/5 25/102/5 45/103/5 43/104/5
f 45/105/13 46/79/13 94/82/13 93/106/13
f 42/97/12 40/93/12 84/96/12 88/98/12
f 39/94/14 38/107/14 82/108/14 83/95/14
f 29/47/13 19/46/13 52/109/13 63/110/13
f 45/103/5 24/111/5 23/112/5 46/113/5
f 34/61/13 42/60/13 73/114/13 67/115/13
f 47/116/5 22/117/5 21/118/5 48/66/5
f 77/119/5 57/120/5 56/121/5 55/122/5
f 53/123/5 69/124/5 66/125/5 54/126/5
f 73/114/5 75/127/5 68/128/5 67/115/5
f 52/129/5 51/130/5 70/72/5 63/71/5
f 64/58/5 71/57/5 72/40/5 65/39/5
f 62/75/5 61/131/5 76/132/5 74/76/5
f 60/133/5 50/134/5 49/135/5 78/136/5
f 79/137/5 59/138/5 58/139/5 80/140/5
f 24/111/8 45/103/8 78/136/8 49/135/8
f 33/31/8 20/30/8 54/141/8 66/142/8
f 32/77/12 40/59/12 69/124/12 53/123/12
f 44/65/14 35/68/14 68/128/14 75/127/14
f 46/113/12 23/112/12 59/138/12 79/137/12
f 21/51/14 17/35/14 56/143/14 57/144/14
f 26/101/14 43/104/14 76/132/14 61/131/14
f 22/117/8 47/116/8 80/140/8 58/139/8
f 35/33/8 34/32/8 67/145/8 68/146/8
f 48/66/12 21/118/12 57/120/12 77/119/12
f 23/53/14 22/52/14 58/147/14 59/148/14
f 40/59/14 33/62/14 66/125/14 69/124/14
f 28/78/14 37/69/14 70/72/14 51/130/14
f 43/104/8 41/73/8 74/76/8 76/132/8
f 25/42/12 18/41/12 50/149/12 60/150/12
f 36/67/13 48/66/13 77/119/13 55/122/13
f 45/103/13 25/102/13 60/133/13 78/136/13
f 18/41/14 24/54/14 49/151/14 50/152/14
f 38/56/14 39/37/14 72/40/14 71/57/14
f 27/44/12 26/43/12 61/153/12 62/154/12
f 19/46/12 28/45/12 51/155/12 52/156/12
f 42/60/12 44/65/12 75/127/12 73/114/12
f 47/116/13 46/113/13 79/137/13 80/140/13
f 20/30/13 32/50/13 53/157/13 54/158/13
f 81/100/5 85/90/5 86/159/5 82/108/5
f 82/108/5 86/159/5 87/160/5 83/95/5
f 83/95/5 87/160/5 88/98/5 84/96/5
f 85/90/5 89/89/5 90/161/5 86/159/5
f 86/159/5 90/161/5 91/162/5 87/160/5
f 87/160/5 91/162/5 92/85/5 88/98/5
f 89/89/5 93/106/5 94/82/5 90/161/5
f 90/161/5 94/82/5 95/81/5 91/162/5
f 91/162/5 95/81/5 96/86/5 92/85/5
f 43/88/8 45/105/8 93/106/8 89/89/8
f 47/80/13 48/83/13 96/86/13 95/81/13
f 38/107/14 37/99/14 81/100/14 82/108/14
f 100/163/8 98/164/8 102/165/8 104/166/8
f 5/13/5 1/16/5 98/164/5 100/163/5
f 3/5/5 7/8/5 99/167/5 97/168/5
f 1/1/5 3/4/5 97/169/5 98/170/5
f 101/171/6 103/172/6 104/173/6 102/174/6
f 97/168/12 99/167/12 103/175/12 101/176/12
f 99/18/13 100/17/13 104/177/13 103/178/13
f 98/170/14 97/169/14 101/179/14 102/180/14
